<svg width="1620" height="570" viewBox="0 0 1620 570" fill="none" xmlns="http://www.w3.org/2000/svg">
<mask id="mask0_83_409" style="mask-type:alpha" maskUnits="userSpaceOnUse" x="0" y="-1" width="1621" height="571">
<path d="M0.00088501 31.9971C0.00088501 14.324 14.3278 -0.00292969 32.0009 -0.00292969H1588C1605.67 -0.00292969 1620 14.324 1620 31.9971V537.997C1620 555.67 1605.67 569.997 1588 569.997H32.0009C14.3278 569.997 0.00088501 555.67 0.00088501 537.997L0.00088501 31.9971Z" fill="#333333"/>
</mask>
<g mask="url(#mask0_83_409)">
<path d="M1651.43 679.823C1630.37 727.977 1585.02 762.326 1520.93 783.162C1456.84 803.998 1374.06 811.302 1278.26 805.399C1086.65 793.594 843.039 728.971 592.854 614.311C342.669 499.651 133.321 356.684 -2.90361 218.243C-71.0174 149.022 -120.83 80.9517 -148.336 18.1377C-175.841 -44.6764 -181.018 -102.181 -159.958 -150.336C-138.898 -198.49 -93.5489 -232.839 -29.4595 -253.675C34.63 -274.511 117.407 -281.815 213.213 -275.912C404.822 -264.107 648.433 -199.483 898.618 -84.8238C1148.8 29.8358 1358.15 172.804 1494.38 311.244C1562.49 380.465 1612.3 448.535 1639.81 511.349C1667.31 574.164 1672.49 631.668 1651.43 679.823Z" stroke="#00325E" stroke-opacity="0.1"/>
<ellipse cx="593" cy="219.5" rx="593" ry="219.5" transform="matrix(0.983956 -0.178411 0.1712 0.985236 243 180.595)" fill="white"/>
</g>
<g clip-path="url(#clip0_83_409)">
<path d="M192.082 108.73L185.195 106.758C182.094 105.882 179.269 104.223 176.991 101.94C174.713 99.6564 173.057 96.8254 172.183 93.7176L170.215 86.8163C170.116 86.5748 169.948 86.3683 169.731 86.2229C169.515 86.0776 169.26 86 169 86C168.74 86 168.485 86.0776 168.269 86.2229C168.052 86.3683 167.884 86.5748 167.785 86.8163L165.817 93.7176C164.943 96.8254 163.287 99.6564 161.009 101.94C158.731 104.223 155.906 105.882 152.805 106.758L145.918 108.73C145.654 108.806 145.421 108.965 145.255 109.185C145.09 109.405 145 109.673 145 109.948C145 110.223 145.09 110.491 145.255 110.711C145.421 110.931 145.654 111.091 145.918 111.166L152.805 113.138C155.906 114.014 158.731 115.673 161.009 117.956C163.287 120.24 164.943 123.071 165.817 126.178L167.785 133.08C167.86 133.345 168.019 133.578 168.238 133.744C168.458 133.91 168.725 134 169 134C169.275 134 169.542 133.91 169.762 133.744C169.981 133.578 170.14 133.345 170.215 133.08L172.183 126.178C173.057 123.071 174.713 120.24 176.991 117.956C179.269 115.673 182.094 114.014 185.195 113.138L192.082 111.166C192.346 111.091 192.579 110.931 192.745 110.711C192.91 110.491 193 110.223 193 109.948C193 109.673 192.91 109.405 192.745 109.185C192.579 108.965 192.346 108.806 192.082 108.73Z" fill="#28272E"/>
</g>
<g clip-path="url(#clip1_83_409)">
<path d="M1532.08 423.73L1525.2 421.758C1522.09 420.882 1519.27 419.223 1516.99 416.94C1514.71 414.656 1513.06 411.825 1512.18 408.718L1510.22 401.816C1510.12 401.575 1509.95 401.368 1509.73 401.223C1509.52 401.078 1509.26 401 1509 401C1508.74 401 1508.48 401.078 1508.27 401.223C1508.05 401.368 1507.88 401.575 1507.78 401.816L1505.82 408.718C1504.94 411.825 1503.29 414.656 1501.01 416.94C1498.73 419.223 1495.91 420.882 1492.8 421.758L1485.92 423.73C1485.65 423.806 1485.42 423.965 1485.26 424.185C1485.09 424.405 1485 424.673 1485 424.948C1485 425.223 1485.09 425.491 1485.26 425.711C1485.42 425.931 1485.65 426.091 1485.92 426.166L1492.8 428.138C1495.91 429.014 1498.73 430.673 1501.01 432.956C1503.29 435.24 1504.94 438.071 1505.82 441.178L1507.78 448.08C1507.86 448.345 1508.02 448.578 1508.24 448.744C1508.46 448.91 1508.73 449 1509 449C1509.27 449 1509.54 448.91 1509.76 448.744C1509.98 448.578 1510.14 448.345 1510.22 448.08L1512.18 441.178C1513.06 438.071 1514.71 435.24 1516.99 432.956C1519.27 430.673 1522.09 429.014 1525.2 428.138L1532.08 426.166C1532.35 426.091 1532.58 425.931 1532.74 425.711C1532.91 425.491 1533 425.223 1533 424.948C1533 424.673 1532.91 424.405 1532.74 424.185C1532.58 423.965 1532.35 423.806 1532.08 423.73Z" fill="#28272E"/>
</g>
<defs>
<clipPath id="clip0_83_409">
<rect x="145" y="86" width="48" height="48" rx="24" fill="white"/>
</clipPath>
<clipPath id="clip1_83_409">
<rect x="1485" y="401" width="48" height="48" rx="24" fill="white"/>
</clipPath>
</defs>
</svg>
