<svg viewBox="0 0 1620 571" fill="none" xmlns="http://www.w3.org/2000/svg">
<path d="M186.305 43.5C195.786 43.5 204.778 39.2961 210.858 32.0219L227.611 11.9781C233.691 4.70386 242.684 0.5 252.164 0.5H1588C1605.67 0.5 1620 14.8269 1620 32.5V538.5C1620 556.173 1605.67 570.5 1588 570.5H1020.71C1014.6 570.5 1008.61 568.748 1003.46 565.453L969.236 543.547C964.087 540.252 958.101 538.5 951.987 538.5H811.348H670.713C664.599 538.5 658.613 540.252 653.464 543.547L619.236 565.453C614.087 568.748 608.101 570.5 601.987 570.5H34.5323C16.923 570.5 2.62274 556.273 2.53267 538.664L0.164511 75.6636C0.0737905 57.9268 14.427 43.5 32.1641 43.5H186.305Z" fill="white"/>
</svg>
