<svg width="1800" height="950" viewBox="0 0 1800 950" fill="none" xmlns="http://www.w3.org/2000/svg">
<mask id="mask0_2002_20" style="mask-type:alpha" maskUnits="userSpaceOnUse" x="0" y="0" width="1800" height="950">
<path d="M0 50C0 22.3857 22.3858 0 50 0H1750C1777.61 0 1800 22.3858 1800 50V900C1800 927.614 1777.61 950 1750 950H50C22.3858 950 0 927.614 0 900L0 50Z" fill="#F8F9FA"/>
</mask>
<g mask="url(#mask0_2002_20)">
<path d="M1865.7 994.104C1842.4 1039.72 1794.01 1069.31 1726.31 1083.67C1658.62 1098.02 1571.7 1097.14 1471.47 1081.89C1271.02 1051.4 1017.46 963.484 758.312 825.347C499.165 687.21 283.537 525.032 144.403 374.509C74.8345 299.246 24.4099 226.917 -2.77781 161.985C-29.9671 97.0482 -33.8894 39.5812 -10.5846 -6.03985C12.7203 -51.6609 61.1105 -81.243 128.806 -95.6015C196.498 -109.959 283.42 -109.076 383.648 -93.8303C584.099 -63.3398 837.66 24.5805 1096.81 162.717C1355.95 300.854 1571.58 463.032 1710.72 613.555C1780.28 688.819 1830.71 761.147 1857.9 826.079C1885.09 891.016 1889.01 948.483 1865.7 994.104Z" stroke="#00325E" stroke-opacity="0.1"/>
<ellipse cx="751.438" cy="242.221" rx="751.438" ry="242.221" transform="matrix(0.983956 -0.178411 0.1712 0.985236 140 357)" fill="white"/>
</g>
<path d="M111.844 303.798L105.029 301.85C101.96 300.985 99.1641 299.347 96.9094 297.092C94.6548 294.837 93.0164 292.042 92.1512 288.973L90.2037 282.158C90.1057 281.919 89.9391 281.715 89.725 281.572C89.5109 281.428 89.259 281.352 89.0012 281.352C88.7434 281.352 88.4915 281.428 88.2774 281.572C88.0632 281.715 87.8966 281.919 87.7987 282.158L85.8512 288.973C84.986 292.042 83.3476 294.837 81.0929 297.092C78.8382 299.347 76.0427 300.985 72.9737 301.85L66.1587 303.798C65.897 303.872 65.6667 304.029 65.5027 304.246C65.3387 304.464 65.25 304.728 65.25 305C65.25 305.272 65.3387 305.537 65.5027 305.754C65.6667 305.971 65.897 306.128 66.1587 306.203L72.9737 308.15C76.0427 309.015 78.8382 310.654 81.0929 312.908C83.3476 315.163 84.986 317.959 85.8512 321.028L87.7987 327.843C87.873 328.104 88.0306 328.335 88.2476 328.499C88.4646 328.663 88.7292 328.751 89.0012 328.751C89.2732 328.751 89.5378 328.663 89.7548 328.499C89.9718 328.335 90.1294 328.104 90.2037 327.843L92.1512 321.028C93.0164 317.959 94.6548 315.163 96.9094 312.908C99.1641 310.654 101.96 309.015 105.029 308.15L111.844 306.203C112.105 306.128 112.336 305.971 112.5 305.754C112.664 305.537 112.752 305.272 112.752 305C112.752 304.728 112.664 304.464 112.5 304.246C112.336 304.029 112.105 303.872 111.844 303.798Z" fill="#28272E"/>
<path d="M1767.84 641.798L1761.03 639.85C1757.96 638.985 1755.16 637.347 1752.91 635.092C1750.65 632.837 1749.02 630.042 1748.15 626.973L1746.2 620.158C1746.11 619.919 1745.94 619.715 1745.73 619.572C1745.51 619.428 1745.26 619.352 1745 619.352C1744.74 619.352 1744.49 619.428 1744.28 619.572C1744.06 619.715 1743.9 619.919 1743.8 620.158L1741.85 626.973C1740.99 630.042 1739.35 632.837 1737.09 635.092C1734.84 637.347 1732.04 638.985 1728.97 639.85L1722.16 641.798C1721.9 641.872 1721.67 642.029 1721.5 642.246C1721.34 642.464 1721.25 642.728 1721.25 643C1721.25 643.272 1721.34 643.537 1721.5 643.754C1721.67 643.971 1721.9 644.128 1722.16 644.203L1728.97 646.15C1732.04 647.015 1734.84 648.654 1737.09 650.908C1739.35 653.163 1740.99 655.959 1741.85 659.028L1743.8 665.843C1743.87 666.104 1744.03 666.335 1744.25 666.499C1744.46 666.663 1744.73 666.751 1745 666.751C1745.27 666.751 1745.54 666.663 1745.75 666.499C1745.97 666.335 1746.13 666.104 1746.2 665.843L1748.15 659.028C1749.02 655.959 1750.65 653.163 1752.91 650.908C1755.16 648.654 1757.96 647.015 1761.03 646.15L1767.84 644.203C1768.11 644.128 1768.34 643.971 1768.5 643.754C1768.66 643.537 1768.75 643.272 1768.75 643C1768.75 642.728 1768.66 642.464 1768.5 642.246C1768.34 642.029 1768.11 641.872 1767.84 641.798Z" fill="#28272E"/>
</svg>
