<svg id="svg-phone-fill" viewBox="0 0 40 40" fill="none" xmlns="http://www.w3.org/2000/svg">
<rect width="40" height="40" rx="20" fill="#85BB15"/>
<path d="M24.2099 21.9066L22.7283 21.7374C22.3724 21.6966 22.0224 21.8191 21.7716 22.0699L20.6983 23.1432C19.0474 22.3032 17.6941 20.9557 16.8541 19.2991L17.9333 18.2199C18.1841 17.9691 18.3066 17.6191 18.2658 17.2632L18.0966 15.7932C18.0266 15.2041 17.5308 14.7607 16.9358 14.7607H15.9266C15.2675 14.7607 14.7191 15.3091 14.76 15.9682C15.0691 20.9499 19.0533 24.9282 24.0291 25.2374C24.6883 25.2782 25.2366 24.7299 25.2366 24.0707V23.0616C25.2424 22.4724 24.7991 21.9766 24.2099 21.9066Z" fill="white"/>
</svg>
