<svg id="svg-pointer" viewBox="0 0 57 57" fill="none" xmlns="http://www.w3.org/2000/svg">
<path d="M19.7312 13.1191L17.5731 12.5024C16.6013 12.2284 15.716 11.7096 15.0021 10.9957C14.2881 10.2817 13.7693 9.3964 13.4953 8.42456L12.8786 6.26648C12.8475 6.19097 12.7948 6.12639 12.727 6.08095C12.6592 6.0355 12.5794 6.01123 12.4978 6.01123C12.4161 6.01123 12.3364 6.0355 12.2686 6.08095C12.2008 6.12639 12.148 6.19097 12.117 6.26648L11.5003 8.42456C11.2263 9.3964 10.7075 10.2817 9.99349 10.9957C9.27951 11.7096 8.39424 12.2284 7.4224 12.5024L5.26431 13.1191C5.18145 13.1427 5.10852 13.1926 5.05659 13.2613C5.00466 13.33 4.97656 13.4138 4.97656 13.4999C4.97656 13.5861 5.00466 13.6699 5.05659 13.7386C5.10852 13.8073 5.18145 13.8572 5.26431 13.8807L7.4224 14.4974C8.39424 14.7714 9.27951 15.2902 9.99349 16.0042C10.7075 16.7182 11.2263 17.6035 11.5003 18.5753L12.117 20.7334C12.1405 20.8163 12.1904 20.8892 12.2591 20.9411C12.3278 20.993 12.4116 21.0211 12.4978 21.0211C12.5839 21.0211 12.6677 20.993 12.7364 20.9411C12.8051 20.8892 12.855 20.8163 12.8786 20.7334L13.4953 18.5753C13.7693 17.6035 14.2881 16.7182 15.0021 16.0042C15.716 15.2902 16.6013 14.7714 17.5731 14.4974L19.7312 13.8807C19.8141 13.8572 19.887 13.8073 19.939 13.7386C19.9909 13.6699 20.019 13.5861 20.019 13.4999C20.019 13.4138 19.9909 13.33 19.939 13.2613C19.887 13.1926 19.8141 13.1427 19.7312 13.1191Z" fill="#85BB15"/>
<path d="M32.7289 15.8336C32.1995 16.2355 31.8479 16.7828 31.6938 17.3701C30.7544 16.641 29.3708 16.6225 28.3392 17.4054C27.8098 17.8072 27.4577 18.355 27.3028 18.9422C26.3642 18.2132 24.9814 18.1948 23.9499 18.9777C23.4516 19.3559 23.1115 19.8631 22.9438 20.4102L19.9914 16.5203C19.1055 15.3531 17.3908 15.1563 16.1696 16.0832C14.9484 17.0101 14.6777 18.7133 15.5638 19.8808L25.824 33.399L20.9134 34.1315C20.2803 34.2656 19.6696 34.5443 19.1484 34.9399C17.9864 35.8219 17.7279 37.4449 18.5769 38.5636C18.9839 39.0998 19.6088 39.4486 20.2922 39.523L33.4077 40.9481C36.3234 41.2644 39.2506 40.4365 41.6475 38.6173C45.7975 35.4675 46.7428 29.6998 43.7536 25.7613L36.5505 16.2709C35.6642 15.1032 33.9501 14.9067 32.7289 15.8336ZM42.8675 26.4335C45.4858 29.8833 44.6367 34.9523 40.9738 37.7324C38.804 39.3793 36.1597 40.1281 33.5279 39.8431L20.4124 38.4176C20.0254 38.376 19.6886 38.1887 19.4575 37.8842C18.9841 37.2604 19.1467 36.337 19.8206 35.8256C20.2114 35.529 20.6702 35.3189 21.1095 35.2252L26.915 34.3595C27.1077 34.3305 27.2726 34.2015 27.348 34.0202C27.4215 33.8374 27.3941 33.6306 27.2752 33.4741L16.4485 19.2093C15.9327 18.5298 16.1093 17.5244 16.8413 16.9688C17.5739 16.4128 18.5897 16.5132 19.1055 17.1927L27.622 28.4136C27.8075 28.6581 28.1556 28.7058 28.4006 28.5199C28.6455 28.3339 28.6932 27.9859 28.5077 27.7414L24.2284 22.1033C23.7129 21.424 23.8891 20.4193 24.6217 19.8633C25.3543 19.3073 26.3695 19.408 26.8849 20.0871L31.1642 25.7252C31.3497 25.9696 31.6978 26.0173 31.9427 25.8314C32.1872 25.6459 32.2349 25.2978 32.0493 25.0533L28.6173 20.5314C28.1017 19.8521 28.279 18.8473 29.0114 18.2915C29.7437 17.7357 30.7589 17.8357 31.2743 18.5148L34.7063 23.0367C34.8919 23.2812 35.2404 23.3285 35.4849 23.1429C35.7293 22.9574 35.777 22.6093 35.5915 22.3649L33.0073 18.9601C32.4916 18.2806 32.6685 17.2757 33.4011 16.7197C34.1331 16.1641 35.1486 16.2639 35.6643 16.9435L42.8675 26.4335Z" fill="#28272E"/>
</svg>
