<svg id="svg-star" viewBox="0 0 30 30" fill="currentColor" xmlns="http://www.w3.org/2000/svg">
<path d="M26.4218 14.3988L23.0143 13.4251C21.4799 12.9924 20.0821 12.1733 18.9547 11.0459C17.8274 9.91858 17.0082 8.52079 16.5756 6.9863L15.6018 3.5788C15.5529 3.45959 15.4696 3.35762 15.3625 3.28586C15.2555 3.2141 15.1295 3.17578 15.0006 3.17578C14.8717 3.17578 14.7457 3.2141 14.6387 3.28586C14.5316 3.35762 14.4483 3.45959 14.3993 3.5788L13.4256 6.9863C12.993 8.52079 12.1738 9.91858 11.0465 11.0459C9.91912 12.1733 8.52133 12.9924 6.98684 13.4251L3.57934 14.3988C3.44851 14.4359 3.33335 14.5147 3.25136 14.6232C3.16936 14.7318 3.125 14.864 3.125 15.0001C3.125 15.1361 3.16936 15.2684 3.25136 15.3769C3.33335 15.4854 3.44851 15.5642 3.57934 15.6013L6.98684 16.5751C8.52133 17.0077 9.91912 17.8268 11.0465 18.9542C12.1738 20.0815 12.993 21.4793 13.4256 23.0138L14.3993 26.4213C14.4365 26.5521 14.5153 26.6673 14.6238 26.7493C14.7323 26.8313 14.8646 26.8756 15.0006 26.8756C15.1366 26.8756 15.2689 26.8313 15.3774 26.7493C15.4859 26.6673 15.5647 26.5521 15.6018 26.4213L16.5756 23.0138C17.0082 21.4793 17.8274 20.0815 18.9547 18.9542C20.0821 17.8268 21.4799 17.0077 23.0143 16.5751L26.4218 15.6013C26.5527 15.5642 26.6678 15.4854 26.7498 15.3769C26.8318 15.2684 26.8762 15.1361 26.8762 15.0001C26.8762 14.864 26.8318 14.7318 26.7498 14.6232C26.6678 14.5147 26.5527 14.4359 26.4218 14.3988Z"/>
</svg>
