<svg id="svg-btn-border" viewBox="0 0 190 46" fill="none" xmlns="http://www.w3.org/2000/svg">
<path d="M8 0.5H182C186.142 0.5 189.5 3.85786 189.5 8V37.9435C189.5 42.1062 186.11 45.4726 181.947 45.4433L120.425 45.01C119.544 45.0038 118.67 44.8422 117.844 44.5327L108.534 41.0412C107.58 40.6833 106.569 40.5 105.549 40.5H95H83.9507C82.9314 40.5 81.9205 40.6833 80.9661 41.0412L71.6553 44.5327C70.83 44.8423 69.9565 45.0038 69.0751 45.0101L8.05319 45.4429C3.89037 45.4724 0.5 42.106 0.5 37.9431V8C0.5 3.85787 3.85786 0.5 8 0.5Z" stroke="currentColor"/>
</svg>
