<svg id="svg-check-fill" viewBox="0 0 50 50" fill="none" xmlns="http://www.w3.org/2000/svg">
<path d="M0 12C0 5.37258 5.37258 0 12 0H38C44.6274 0 50 5.37258 50 12V38C50 44.6274 44.6274 50 38 50H12C5.37258 50 0 44.6274 0 38V12Z" fill="#85BB15"/>
<path d="M20.1792 27.2498C21.208 28.3455 22.948 28.3453 23.9766 27.2495L31.0392 19.7251C31.4079 19.3323 32.0317 19.3323 32.4004 19.7251V19.7251C32.7375 20.0843 32.7375 20.6436 32.4004 21.0027L24.7769 29.1247C23.3148 30.6824 20.8412 30.6826 19.3788 29.1251L17.5998 27.2303C17.2626 26.8711 17.2626 26.3117 17.5997 25.9525V25.9525C17.9684 25.5597 18.5921 25.5597 18.9608 25.9524L20.1792 27.2498Z" fill="white"/>
</svg>
