<svg id="svg-contract" viewBox="0 0 175 175" fill="none" xmlns="http://www.w3.org/2000/svg">
<circle cx="87.5" cy="87.5" r="87.5" fill="#85BB15"/>
<path fill-rule="evenodd" clip-rule="evenodd" d="M41.2396 131C52.8213 143.312 69.2628 151 87.5 151C105.737 151 122.179 143.312 133.76 131H132.378C121.018 142.718 105.109 150 87.5 150C69.8907 150 53.9824 142.718 42.6223 131H41.2396Z" fill="white"/>
<path d="M25.6691 116.664L22.6434 108.486L30.9416 105.416L31.6356 107.291L25.003 109.745L26.6463 114.187L33.2789 111.733L33.9674 113.594L25.6691 116.664Z" fill="white"/>
<path d="M25.0063 100.499C26.8142 100.258 27.7372 98.8275 27.5173 97.1781C27.2973 95.5287 26.0317 94.39 24.2237 94.6311C22.4157 94.8723 21.4927 96.3028 21.7127 97.9522C21.9326 99.6016 23.1983 100.74 25.0063 100.499ZM23.9593 92.6487C26.7189 92.2807 28.859 94.2874 29.2143 96.9518C29.5696 99.6162 28.0302 102.114 25.2706 102.482C22.5111 102.85 20.371 100.843 20.0157 98.1785C19.6604 95.5141 21.1998 93.0167 23.9593 92.6487Z" fill="white"/>
<path d="M22.1244 78.1078L22.8822 79.7318C21.8674 80.3178 21.2649 81.1486 21.1425 82.5512C20.9881 84.3205 22.0037 85.5655 23.7411 85.7171C25.4467 85.8659 26.6986 84.7706 26.8488 83.0491C26.9712 81.6464 26.5217 80.7239 25.6237 79.971L26.6513 78.5027C28.1181 79.5462 28.8003 81.1154 28.6209 83.1716C28.3747 85.9929 26.4218 87.9425 23.5687 87.6936C20.7155 87.4446 19.134 85.1384 19.376 82.365C19.5554 80.3088 20.499 78.8814 22.1244 78.1078Z" fill="white"/>
<path d="M20.6179 72.564L21.4823 70.0357L28.5574 69.1741L28.5833 69.0984L23.5578 63.9647L24.386 61.5423L32.7582 64.4046L32.1216 66.2668L26.2625 64.2637L26.2315 64.3546L31.1226 69.1888L30.5792 70.7784L23.7884 71.5005L23.7574 71.5913L29.6164 73.5944L28.9901 75.4263L20.6179 72.564Z" fill="white"/>
<path d="M31.6653 56.5669C33.1944 57.5611 34.8265 57.0764 35.7335 55.6813C36.6405 54.2863 36.4214 52.598 34.8922 51.6037C33.3631 50.6094 31.731 51.0942 30.824 52.4892C29.917 53.8843 30.1361 55.5726 31.6653 56.5669ZM35.9824 49.9269C38.3165 51.4445 38.634 54.361 37.1688 56.6145C35.7036 58.8681 32.9091 59.7612 30.5751 58.2436C28.241 56.726 27.9235 53.8096 29.3887 51.556C30.8539 49.3025 33.6484 48.4094 35.9824 49.9269Z" fill="white"/>
<path d="M35.5327 43.1402L42.0515 36.6483L43.316 37.9181L40.7651 40.4584L45.7442 45.458L44.327 46.8693L39.348 41.8697L36.7972 44.41L35.5327 43.1402Z" fill="white"/>
<path d="M45.3845 33.6534L49.7519 30.8016C51.4935 29.6644 53.5674 29.9726 54.7047 31.7142C55.8419 33.4558 55.255 35.425 53.5135 36.5622L50.8207 38.3205L51.8967 39.9683L50.2221 41.0618L45.3845 33.6534ZM48.0564 34.0871L49.8234 36.7933L52.4492 35.0787C53.3066 34.5189 53.5899 33.6651 53.0301 32.8077C52.4702 31.9503 51.5396 31.8127 50.6822 32.3726L48.0564 34.0871Z" fill="white"/>
<path d="M57.6642 26.0319L65.1432 23.103L65.8025 24.7865L60.1858 26.9861L60.7809 28.5057L65.8314 26.5279L66.4907 28.2114L61.4402 30.1892L62.082 31.828L67.9072 29.5468L68.5782 31.2601L60.8906 34.2707L57.6642 26.0319Z" fill="white"/>
<path d="M69.7287 21.5057L78.7821 19.8698L79.1007 21.6332L75.5581 22.2734L76.8128 29.2169L74.8447 29.5726L73.59 22.629L70.0473 23.2692L69.7287 21.5057Z" fill="white"/>
<path d="M83.4098 19.3181L85.4095 19.3539L85.3735 21.3696L88.429 21.4241C90.5087 21.4613 92.0536 22.7691 92.0164 24.8488C91.9793 26.9284 90.3867 28.2922 88.307 28.255L83.2518 28.1647L83.4098 19.3181ZM85.3418 23.1453L85.2841 26.3768L88.1956 26.4288C89.3794 26.4499 89.9973 25.9009 90.0168 24.813C90.0362 23.7252 89.4371 23.2184 88.2533 23.1973L85.3418 23.1453Z" fill="white"/>
<path d="M126.697 31.6689L132.206 36.0771L127.798 41.5866L128.61 42.2363L126.431 44.9599L125.082 43.8803L126.016 42.4561L120.682 38.1878L119.497 39.4121L118.148 38.3326L120.327 35.609L121.202 36.3088L126.697 31.6689ZM126.881 34.0502L122.826 37.6082L126.236 40.3371L129.555 36.1894L126.881 34.0502Z" fill="white"/>
<path d="M134.687 44.5395C133.254 45.6674 133.188 47.3686 134.217 48.6763C135.246 49.9841 136.915 50.32 138.348 49.1921C139.782 48.0643 139.848 46.3631 138.819 45.0553C137.79 43.7476 136.121 43.4117 134.687 44.5395ZM139.585 50.7639C137.397 52.4854 134.533 51.8475 132.871 49.7349C131.209 47.6224 131.263 44.6892 133.451 42.9677C135.639 41.2463 138.502 41.8842 140.164 43.9967C141.826 46.1093 141.773 49.0425 139.585 50.7639Z" fill="white"/>
<path d="M146.213 52.5847L149.806 59.9112L148.183 60.7073L145.47 55.1765L139.15 58.2761L138.269 56.4804L146.213 52.5847Z" fill="white"/>
<path d="M148.195 67.7639C146.424 68.1977 145.66 69.7191 146.055 71.3354C146.451 72.9516 147.832 73.9478 149.603 73.514C151.375 73.0801 152.139 71.5587 151.743 69.9425C151.348 68.3262 149.967 67.33 148.195 67.7639ZM150.079 75.4566C147.375 76.1188 145.032 74.3534 144.393 71.7426C143.753 69.1317 145.016 66.4835 147.72 65.8213C150.424 65.1591 152.767 66.9244 153.406 69.5353C154.046 72.1461 152.783 74.7944 150.079 75.4566Z" fill="white"/>
<path d="M155.457 80.4509L155.552 86.1461C155.579 87.7459 154.67 88.8973 153.231 88.9216C152.591 88.9323 152.043 88.7175 151.715 88.2589C151.313 89.0818 150.601 89.5739 149.513 89.5922C147.994 89.6177 146.741 88.4066 146.713 86.7269L146.61 80.5997L155.457 80.4509ZM153.698 82.4808L152.083 82.508L152.146 86.2674C152.153 86.6994 152.558 86.9806 152.958 86.9739C153.342 86.9674 153.77 86.7522 153.759 86.0803L153.698 82.4808ZM150.339 82.5373L148.451 82.5691L148.52 86.6325C148.53 87.2724 148.937 87.6496 149.481 87.6405C150.057 87.6308 150.418 87.2246 150.408 86.6487L150.339 82.5373Z" fill="white"/>
<path d="M150.82 95.5328C149.033 95.1679 147.692 96.2168 147.359 97.8471C147.026 99.4775 147.849 100.968 149.636 101.333C151.423 101.698 152.764 100.649 153.097 99.0188C153.43 97.3885 152.607 95.8978 150.82 95.5328ZM149.235 103.293C146.508 102.736 145.144 100.138 145.682 97.5046C146.22 94.871 148.493 93.0163 151.22 93.5733C153.948 94.1303 155.312 96.7277 154.774 99.3614C154.236 101.995 151.963 103.85 149.235 103.293Z" fill="white"/>
<path d="M151.996 110.104L149.84 114.853C148.98 116.747 147.065 117.6 145.171 116.74C143.277 115.881 142.715 113.904 143.575 112.01L144.904 109.082L143.112 108.268L143.938 106.447L151.996 110.104ZM149.508 111.171L146.565 109.835L145.269 112.691C144.846 113.624 145.065 114.496 145.997 114.919C146.93 115.342 147.789 114.959 148.212 114.027L149.508 111.171Z" fill="white"/>
<path d="M88.13 87.814V74H87.08V87.814C85.61 87.814 81.41 87.186 77 81.7442C79.73 85.093 85.82 93.2558 87.5 97.6512C89.18 93.4651 95.27 85.093 98 81.7442C93.59 87.186 89.6 87.814 88.13 87.814Z" fill="white"/>
<path d="M98 99.9531H77V101H98V99.9531Z" fill="white"/>
</svg>
