<svg id="svg-phone-fill" viewBox="0 0 40 40" fill="none" xmlns="http://www.w3.org/2000/svg">
<rect width="40" height="40" rx="12" fill="#85BB15"/>
<path d="M26.0142 22.7235L23.8975 22.4818C23.3892 22.4235 22.8892 22.5985 22.5309 22.9568L20.9975 24.4901C18.6392 23.2901 16.7059 21.3651 15.5059 18.9985L17.0476 17.4568C17.4059 17.0985 17.5809 16.5985 17.5226 16.0901L17.2809 13.9901C17.1809 13.1485 16.4726 12.5151 15.6226 12.5151H14.1809C13.2392 12.5151 12.4559 13.2985 12.5142 14.2401C12.9559 21.3568 18.6475 27.0401 25.7559 27.4818C26.6975 27.5401 27.4809 26.7568 27.4809 25.8151V24.3735C27.4892 23.5318 26.8559 22.8235 26.0142 22.7235Z" fill="white"/>
</svg>
