<svg id="svg-phone" viewBox="0 0 24 24" fill="none" xmlns="http://www.w3.org/2000/svg">
<path d="M4.78074 15.2681L7.32074 14.9781C7.93074 14.9081 8.53074 15.1181 8.96074 15.5481L10.8007 17.3881C13.6307 15.9481 15.9507 13.6381 17.3907 10.7981L15.5407 8.94807C15.1107 8.51807 14.9007 7.91807 14.9707 7.30807L15.2607 4.78807C15.3807 3.77807 16.2307 3.01807 17.2507 3.01807H18.9807C20.1107 3.01807 21.0507 3.95807 20.9807 5.08807C20.4507 13.6281 13.6207 20.4481 5.09074 20.9781C3.96074 21.0481 3.02074 20.1081 3.02074 18.9781V17.2481C3.01074 16.2381 3.77074 15.3881 4.78074 15.2681Z" fill="currentColor" fill-opacity="0.3"/>
</svg>
