<svg id="svg-video-play-light" viewBox="0 0 175 175" fill="none" xmlns="http://www.w3.org/2000/svg">
<path d="M175 87.5C175 135.825 135.825 175 87.5 175C39.1751 175 0 135.825 0 87.5C0 39.1751 39.1751 0 87.5 0C135.825 0 175 39.1751 175 87.5Z" fill="white"/>
<path d="M155 87.8916C155 125.171 124.779 155.392 87.5 155.392C50.2208 155.392 20 125.171 20 87.8916C20 50.6124 50.2208 20.3916 87.5 20.3916C124.779 20.3916 155 50.6124 155 87.8916Z" fill="white"/>
<path d="M158.977 88.9577L158.243 96.5523L150.537 95.8071L150.705 94.0652L156.864 94.6608L157.263 90.5361L151.104 89.9405L151.271 88.2125L158.977 88.9577Z" fill="#00325E"/>
<path d="M153.728 100.993C152.184 100.587 150.962 101.438 150.591 102.847C150.221 104.255 150.867 105.597 152.411 106.003C153.954 106.408 155.177 105.557 155.547 104.149C155.917 102.741 155.271 101.399 153.728 100.993ZM151.966 107.695C149.61 107.076 148.545 104.74 149.143 102.466C149.741 100.191 151.817 98.6811 154.173 99.3004C156.529 99.9197 157.594 102.255 156.996 104.53C156.398 106.805 154.322 108.315 151.966 107.695Z" fill="#00325E"/>
<path d="M149.864 118.356L149.706 116.796C150.713 116.605 151.45 116.092 151.955 114.968C152.592 113.551 152.112 112.229 150.72 111.604C149.354 110.989 148.004 111.534 147.384 112.913C146.879 114.036 146.984 114.928 147.509 115.809L146.237 116.726C145.326 115.441 145.215 113.948 145.955 112.301C146.971 110.041 149.146 108.993 151.432 110.02C153.718 111.048 154.36 113.409 153.361 115.631C152.62 117.278 151.43 118.185 149.864 118.356Z" fill="#00325E"/>
<path d="M150.192 122.48L148.865 124.405L142.701 123.457L142.662 123.514L145.68 129.028L144.409 130.873L138.034 126.48L139.011 125.062L143.472 128.136L143.52 128.067L140.544 122.837L141.378 121.627L147.269 122.626L147.317 122.556L142.855 119.482L143.817 118.087L150.192 122.48Z" fill="#00325E"/>
<path d="M138.437 132.176C137.3 131.056 135.816 131.185 134.794 132.222C133.772 133.259 133.664 134.745 134.8 135.866C135.937 136.986 137.421 136.856 138.443 135.819C139.465 134.782 139.573 133.297 138.437 132.176ZM133.572 137.112C131.837 135.402 132.076 132.846 133.727 131.171C135.378 129.496 137.93 129.22 139.665 130.93C141.4 132.64 141.161 135.196 139.51 136.871C137.859 138.546 135.307 138.822 133.572 137.112Z" fill="#00325E"/>
<path d="M134.43 141.83L127.938 146.589L127.011 145.324L129.551 143.462L125.901 138.483L127.313 137.448L130.963 142.428L133.503 140.565L134.43 141.83Z" fill="#00325E"/>
<path d="M124.78 148.898L120.705 150.953C119.08 151.772 117.306 151.303 116.486 149.678C115.667 148.053 116.369 146.397 117.994 145.578L120.506 144.31L119.731 142.773L121.293 141.985L124.78 148.898ZM122.498 148.261L121.225 145.735L118.775 146.971C117.975 147.375 117.646 148.089 118.049 148.89C118.452 149.69 119.248 149.9 120.048 149.496L122.498 148.261Z" fill="#00325E"/>
<path d="M114.399 154.123L112.744 154.647L111.123 149.521L108.352 156.035L106.737 156.546L104.403 149.164L106.058 148.641L107.67 153.74L110.436 147.256L112.065 146.741L114.399 154.123Z" fill="#00325E"/>
<path d="M103.555 157.593L95.5822 158.705L95.3654 157.152L98.4852 156.717L97.6317 150.602L99.3649 150.36L100.218 156.475L103.338 156.04L103.555 157.593Z" fill="#00325E"/>
<path d="M91.5217 159.204L84.4945 159.096L84.519 157.514L89.7963 157.595L89.8184 156.167L85.073 156.094L85.0974 154.512L89.8428 154.586L89.8666 153.046L84.3932 152.961L84.4181 151.351L91.6412 151.463L91.5217 159.204Z" fill="#00325E"/>
<path d="M65.3801 155.882L60.7825 153.958C59.4911 153.417 58.8877 152.285 59.3742 151.122C59.5904 150.606 59.955 150.242 60.4376 150.141C59.9196 149.529 59.7754 148.786 60.143 147.908C60.6565 146.681 62.0671 146.103 63.4231 146.67L68.3693 148.741L65.3801 155.882ZM64.3712 153.76L64.9171 152.456L61.8823 151.186C61.5336 151.04 61.166 151.265 61.0308 151.588C60.9011 151.898 60.923 152.317 61.4654 152.544L64.3712 153.76ZM65.5063 151.048L66.1442 149.524L62.8639 148.151C62.3474 147.935 61.9023 148.128 61.7185 148.567C61.5239 149.032 61.7224 149.464 62.1874 149.659L65.5063 151.048Z" fill="#00325E"/>
<path d="M54.6569 151.393L53.1854 150.471L56.038 145.915L49.2813 148.027L47.8455 147.129L51.9534 140.566L53.4249 141.487L50.5872 146.021L57.3172 143.924L58.7649 144.83L54.6569 151.393Z" fill="#00325E"/>
<path d="M43.2619 143.913L38.6649 139.792L42.7862 135.195L42.1086 134.587L44.1459 132.315L45.2717 133.324L44.3854 134.523L48.8365 138.513L49.9313 137.502L51.0571 138.511L49.0198 140.783L48.2901 140.129L43.2619 143.913ZM43.2173 141.824L46.935 138.914L44.0892 136.363L40.9865 139.824L43.2173 141.824Z" fill="#00325E"/>
<path d="M35.391 136.756L30.9721 131.291L32.2023 130.296L35.5208 134.4L36.6312 133.502L33.6472 129.812L34.8773 128.817L37.8614 132.508L39.0589 131.539L35.6171 127.283L36.8691 126.27L41.4112 131.888L35.391 136.756Z" fill="#00325E"/>
<path d="M31.2896 125.257C32.6697 124.456 32.9355 122.99 32.2042 121.731C31.4728 120.472 30.068 119.977 28.6879 120.778C27.3078 121.58 27.0421 123.046 27.7734 124.305C28.5047 125.564 29.9096 126.059 31.2896 125.257ZM27.8089 119.265C29.9154 118.041 32.3182 118.945 33.4995 120.979C34.6808 123.012 34.275 125.547 32.1686 126.771C30.0622 127.994 27.6594 127.091 26.478 125.057C25.2967 123.023 25.7025 120.489 27.8089 119.265Z" fill="#00325E"/>
<path d="M21.372 101.479C22.9527 101.258 23.7526 100.002 23.5514 98.5598C23.3501 97.1178 22.2366 96.1282 20.656 96.3488C19.0753 96.5695 18.2753 97.8261 18.4766 99.2681C18.6778 100.71 19.7913 101.7 21.372 101.479ZM20.414 94.6156C22.8267 94.2789 24.7099 96.0233 25.035 98.3528C25.3601 100.682 24.0265 102.876 21.6139 103.212C19.2013 103.549 17.3181 101.805 16.993 99.4752C16.6678 97.1458 18.0014 94.9524 20.414 94.6156Z" fill="#00325E"/>
<path d="M20.8276 68.6187L21.2521 70.1282C20.2929 70.4907 19.6551 71.1228 19.351 72.3166C18.9673 73.8225 19.6681 75.0413 21.1469 75.418C22.5985 75.7878 23.8346 75.0192 24.2078 73.554C24.512 72.3601 24.2544 71.4999 23.5855 70.7227L24.6805 69.6003C25.7995 70.7088 26.1665 72.1604 25.7206 73.9105C25.1089 76.3118 23.1468 77.7189 20.7183 77.1003C18.2899 76.4816 17.2506 74.2665 17.852 71.9059C18.2978 70.1558 19.3146 69.0568 20.8276 68.6187Z" fill="#00325E"/>
<path d="M19.8917 64.6101L20.5918 63.0215L25.5113 65.1894L22.4491 58.8066L23.1323 57.2564L30.2169 60.3784L29.5168 61.967L24.6229 59.8104L27.6651 66.1691L26.9763 67.732L19.8917 64.6101Z" fill="#00325E"/>
<path d="M30.533 48.271L30.4483 49.8367C29.4235 49.8706 28.616 50.2634 27.9432 51.2955C27.0946 52.5973 27.3652 53.9769 28.6435 54.8102C29.8985 55.6283 31.3163 55.2991 32.142 54.0324C32.8147 53.0003 32.8481 52.103 32.4655 51.1517L33.8639 50.4421C34.5658 51.8522 34.4453 53.3446 33.4591 54.8575C32.1059 56.9335 29.7949 57.633 27.6956 56.2646C25.5962 54.8961 25.3264 52.4642 26.6566 50.4235C27.6428 48.9105 28.9596 48.1979 30.533 48.271Z" fill="#00325E"/>
<path d="M30.525 44.6517L35.9421 38.6971L37.1019 39.7522L34.9822 42.0823L39.5492 46.2369L38.3716 47.5314L33.8046 43.3768L31.6849 45.7069L30.525 44.6517Z" fill="#00325E"/>
<path d="M38.7988 35.628L44.2799 31.229L45.2701 32.4628L41.1539 35.7664L42.0477 36.8801L45.749 33.9095L46.7392 35.1433L43.0379 38.1139L44.0018 39.3149L48.2709 35.8886L49.2786 37.1442L43.6447 41.6659L38.7988 35.628Z" fill="#00325E"/>
<path d="M46.788 28.9735L48.8352 27.8442L53.925 31.448L53.9863 31.4142L53.7508 25.1326L55.7122 24.0506L59.4517 30.8296L57.9439 31.6613L55.3269 26.9173L55.2534 26.9579L55.578 32.9665L54.2909 33.6765L49.4673 30.1496L49.3938 30.1902L52.0108 34.9343L50.5275 35.7525L46.788 28.9735Z" fill="#00325E"/>
<path d="M58.8711 22.4115L65.5052 20.0914L66.0274 21.5848L61.0453 23.3271L61.5167 24.675L65.9966 23.1083L66.5188 24.6016L62.0389 26.1684L62.5473 27.622L67.7144 25.815L68.2459 27.3347L61.4268 29.7195L58.8711 22.4115Z" fill="#00325E"/>
<path d="M89.8235 16.4099L97.8161 17.3694L97.6292 18.9262L94.5016 18.5508L93.7658 24.6808L92.0282 24.4722L92.7641 18.3422L89.6366 17.9668L89.8235 16.4099Z" fill="#00325E"/>
<path d="M101.541 17.9937L103.245 18.3934L101.477 25.9307L99.7729 25.531L101.541 17.9937Z" fill="#00325E"/>
<path d="M106.701 18.8747L108.878 19.7288L109.355 25.9469L109.42 25.9725L114.104 21.7796L116.189 22.5979L113.361 29.8048L111.758 29.1757L113.737 24.1322L113.659 24.1015L109.243 28.1887L107.874 27.6517L107.508 21.6876L107.429 21.6569L105.45 26.7004L103.873 26.0816L106.701 18.8747Z" fill="#00325E"/>
<path d="M119.44 23.9564L125.465 27.5754L124.65 28.9316L120.126 26.2137L119.39 27.4378L123.459 29.8817L122.644 31.2379L118.576 28.7939L117.783 30.1141L122.475 32.9329L121.646 34.313L115.453 30.593L119.44 23.9564Z" fill="#00325E"/>
<path d="M128.65 29.4176L132.468 32.6213C133.541 33.5213 133.78 34.7822 132.97 35.7474C132.61 36.1764 132.154 36.4151 131.663 36.3686C131.976 37.1064 131.893 37.8589 131.281 38.5882C130.426 39.607 128.907 39.7399 127.781 38.7949L123.674 35.3482L128.65 29.4176ZM128.983 31.7437L128.074 32.8268L130.594 34.9416C130.884 35.1846 131.302 35.0785 131.527 34.8104C131.743 34.553 131.846 34.1465 131.396 33.7685L128.983 31.7437ZM127.093 33.9958L126.031 35.2613L128.755 37.5471C129.184 37.9071 129.667 37.8549 129.973 37.4903C130.297 37.1042 130.235 36.6326 129.849 36.3086L127.093 33.9958Z" fill="#00325E"/>
<path d="M135.845 40.7864C134.634 41.8256 134.639 43.3153 135.587 44.4203C136.535 45.5254 138.007 45.7571 139.218 44.7179C140.429 43.6787 140.424 42.189 139.476 41.0839C138.528 39.9789 137.056 39.7472 135.845 40.7864ZM140.357 46.0461C138.509 47.6322 135.982 47.1808 134.45 45.3957C132.919 43.6106 132.857 41.0443 134.706 39.4582C136.554 37.8721 139.081 38.3235 140.613 40.1086C142.144 41.8936 142.206 44.4599 140.357 46.0461Z" fill="#00325E"/>
<path d="M142.764 49.113C141.402 49.9449 141.168 51.4162 141.927 52.6587C142.686 53.9013 144.102 54.3656 145.464 53.5337C146.826 52.7018 147.059 51.2305 146.3 49.9879C145.541 48.7454 144.126 48.2811 142.764 49.113ZM146.376 55.0271C144.297 56.2969 141.875 55.4468 140.649 53.4395C139.423 51.4323 139.773 48.8892 141.852 47.6195C143.931 46.3498 146.353 47.1999 147.579 49.2071C148.805 51.2143 148.455 53.7574 146.376 55.0271Z" fill="#00325E"/>
<path d="M151.3 55.5987L151.952 57.2075L149.305 58.2806L150.152 60.3695L153.53 61.0998L154.287 62.968L150.035 62.0183L147.181 66.0457L146.403 64.1255L148.689 61.0081L147.826 58.8803L144.777 60.1165L144.125 58.5077L151.3 55.5987Z" fill="#00325E"/>
<path d="M102.5 82.5615C105.833 84.486 105.833 89.2972 102.5 91.2217L83.75 102.047C80.4167 103.972 76.25 101.566 76.25 97.7169L76.25 76.0663C76.25 72.2173 80.4167 69.8117 83.75 71.7362L102.5 82.5615Z" fill="#00325E"/>
</svg>
