<svg id="svg-video-play-primary" viewBox="0 0 120 120" fill="none" xmlns="http://www.w3.org/2000/svg">
<path d="M120 60C120 93.1371 93.1371 120 60 120C26.8629 120 0 93.1371 0 60C0 26.8629 26.8629 0 60 0C93.1371 0 120 26.8629 120 60Z" fill="#85BB15"/>
<path d="M106.286 60.2684C106.286 85.8313 85.5635 106.554 60.0006 106.554C34.4377 106.554 13.7148 85.8313 13.7148 60.2684C13.7148 34.7055 34.4377 13.9827 60.0006 13.9827C85.5635 13.9827 106.286 34.7055 106.286 60.2684Z" fill="#85BB15"/>
<path d="M109.924 61.2081L109.294 67.7178L102.689 67.0791L102.834 65.586L108.113 66.0965L108.455 62.561L103.176 62.0505L103.319 60.5694L109.924 61.2081Z" fill="white"/>
<path d="M105.565 69.7064C104.242 69.3586 103.194 70.0882 102.877 71.2952C102.56 72.5022 103.113 73.6527 104.436 74.0005C105.76 74.3483 106.807 73.6187 107.125 72.4117C107.442 71.2047 106.888 70.0542 105.565 69.7064ZM104.055 75.4512C102.036 74.9204 101.123 72.9185 101.635 70.9687C102.148 69.019 103.927 67.7249 105.947 68.2557C107.966 68.7865 108.879 70.7884 108.367 72.7382C107.854 74.6879 106.075 75.9821 104.055 75.4512Z" fill="white"/>
<path d="M102.693 82.7827L102.558 81.4455C103.421 81.281 104.053 80.8415 104.486 79.8783C105.032 78.6635 104.62 77.531 103.427 76.9946C102.256 76.4681 101.099 76.9347 100.568 78.1167C100.135 79.0798 100.225 79.8442 100.675 80.5991L99.5848 81.3852C98.8037 80.284 98.7081 79.0042 99.3428 77.5924C100.214 75.6552 102.078 74.7567 104.037 75.6375C105.996 76.5183 106.547 78.542 105.691 80.4464C105.056 81.8583 104.035 82.6361 102.693 82.7827Z" fill="white"/>
<path d="M103.684 84.6113L102.547 86.2616L97.264 85.4484L97.23 85.4978L99.8172 90.2241L98.7279 91.8051L93.2633 88.0401L94.1008 86.8247L97.9249 89.4595L97.9658 89.4002L95.4148 84.9175L96.1297 83.88L101.179 84.7361L101.22 84.6768L97.396 82.042L98.2198 80.8463L103.684 84.6113Z" fill="white"/>
<path d="M94.8341 91.1045C93.8597 90.1443 92.5877 90.2553 91.7117 91.1442C90.8357 92.0331 90.7431 93.3066 91.7174 94.2668C92.6917 95.2271 93.9638 95.116 94.8398 94.2272C95.7158 93.3383 95.8084 92.0648 94.8341 91.1045ZM90.6645 95.3352C89.1774 93.8695 89.3821 91.6788 90.7972 90.2429C92.2123 88.8071 94.3999 88.5705 95.887 90.0362C97.3741 91.5019 97.1694 93.6926 95.7543 95.1285C94.3392 96.5643 92.1516 96.8008 90.6645 95.3352Z" fill="white"/>
<path d="M92.6681 98.0453L87.1031 102.125L86.3085 101.041L88.4861 99.4444L85.3575 95.1763L86.5673 94.2895L89.6959 98.5576L91.8736 96.9614L92.6681 98.0453Z" fill="white"/>
<path d="M85.8713 102.983L82.3784 104.745C80.9855 105.447 79.4654 105.045 78.7629 103.652C78.0604 102.259 78.6619 100.84 80.0548 100.137L82.2084 99.0513L81.5438 97.7334L82.8831 97.058L85.8713 102.983ZM83.916 102.437L82.8245 100.273L80.7244 101.332C80.0387 101.678 79.7564 102.291 80.1022 102.976C80.448 103.662 81.1302 103.842 81.816 103.496L83.916 102.437Z" fill="white"/>
<path d="M78.6112 106.604L77.1924 107.053L75.8031 102.66L73.4281 108.243L72.0437 108.681L70.0429 102.354L71.4617 101.905L72.8438 106.276L75.2145 100.719L76.6104 100.277L78.6112 106.604Z" fill="white"/>
<path d="M71.0652 108.991L64.2314 109.945L64.0456 108.614L66.7197 108.241L65.9882 103L67.4738 102.792L68.2053 108.034L70.8794 107.66L71.0652 108.991Z" fill="white"/>
<path d="M62.6219 110.094L56.5986 110.001L56.6196 108.645L61.143 108.715L61.1619 107.491L57.0944 107.428L57.1154 106.072L61.1829 106.135L61.2033 104.815L56.5118 104.743L56.5331 103.363L62.7244 103.459L62.6219 110.094Z" fill="white"/>
<path d="M44.3626 107.7L40.4219 106.05C39.3149 105.587 38.7977 104.616 39.2147 103.62C39.4001 103.177 39.7126 102.865 40.1262 102.778C39.6822 102.254 39.5586 101.617 39.8736 100.864C40.3138 99.8128 41.5229 99.3172 42.6852 99.8037L46.9248 101.578L44.3626 107.7ZM43.4978 105.881L43.9658 104.763L41.3645 103.674C41.0656 103.549 40.7505 103.742 40.6347 104.019C40.5235 104.284 40.5423 104.644 41.0072 104.838L43.4978 105.881ZM44.4708 103.556L45.0176 102.25L42.2059 101.073C41.7631 100.888 41.3816 101.053 41.2241 101.43C41.0573 101.828 41.2275 102.199 41.626 102.365L44.4708 103.556Z" fill="white"/>
<path d="M36.8877 104.535L35.6265 103.745L38.0715 99.8392L32.2801 101.65L31.0493 100.88L34.5705 95.255L35.8317 96.0445L33.3994 99.93L39.1679 98.133L40.4089 98.9098L36.8877 104.535Z" fill="white"/>
<path d="M28.7039 99.0661L24.7636 95.5335L28.2961 91.5932L27.7154 91.0725L29.4616 89.1247L30.4266 89.9898L29.6668 91.0171L33.4821 94.4375L34.4205 93.5705L35.3855 94.4356L33.6393 96.3834L33.0138 95.8227L28.7039 99.0661ZM28.6656 97.2752L31.8523 94.7813L29.413 92.5945L26.7536 95.5609L28.6656 97.2752Z" fill="white"/>
<path d="M23.471 94.2647L19.6834 89.5805L20.7379 88.7279L23.5823 92.2457L24.5341 91.4762L21.9764 88.3129L23.0308 87.4603L25.5886 90.6236L26.615 89.7936L23.6649 86.1451L24.738 85.2774L28.6312 90.0923L23.471 94.2647Z" fill="white"/>
<path d="M21.0266 85.676C22.2096 84.9888 22.4373 83.7325 21.8105 82.6533C21.1837 81.5742 19.9795 81.1495 18.7966 81.8366C17.6136 82.5237 17.3859 83.7801 18.0127 84.8593C18.6395 85.9384 19.8437 86.3631 21.0266 85.676ZM18.0432 80.5396C19.8487 79.4908 21.9082 80.2651 22.9208 82.0084C23.9334 83.7517 23.5856 85.9243 21.78 86.973C19.9745 88.0218 17.915 87.2474 16.9024 85.5042C15.8898 83.7609 16.2377 81.5883 18.0432 80.5396Z" fill="white"/>
<path d="M14.339 69.225C15.6938 69.0359 16.3795 67.9588 16.207 66.7228C16.0345 65.4867 15.0801 64.6385 13.7252 64.8276C12.3703 65.0167 11.6847 66.0939 11.8572 67.3299C12.0297 68.5659 12.9841 69.4141 14.339 69.225ZM13.5179 63.342C15.5858 63.0534 17.2 64.5486 17.4787 66.5453C17.7574 68.5419 16.6143 70.422 14.5463 70.7106C12.4784 70.9992 10.8642 69.504 10.5855 67.5074C10.3068 65.5107 11.4499 63.6307 13.5179 63.342Z" fill="white"/>
<path d="M14.0681 45.4412L14.432 46.7351C13.6098 47.0457 13.0632 47.5875 12.8025 48.6108C12.4736 49.9016 13.0743 50.9462 14.3418 51.2691C15.5861 51.5861 16.6455 50.9273 16.9655 49.6714C17.2262 48.6481 17.0054 47.9108 16.4321 47.2446L17.3706 46.2825C18.3298 47.2327 18.6443 48.4769 18.2622 49.977C17.7378 52.0352 16.056 53.2414 13.9745 52.7111C11.893 52.1808 11.0021 50.2821 11.5176 48.2587C11.8998 46.7587 12.7713 45.8167 14.0681 45.4412Z" fill="white"/>
<path d="M12.8379 43.8204L13.4379 42.4587L17.6547 44.3169L15.03 38.846L15.6155 37.5172L21.688 40.1932L21.088 41.5549L16.8932 39.7064L19.5008 45.1567L18.9104 46.4964L12.8379 43.8204Z" fill="white"/>
<path d="M21.2558 31.506L21.1831 32.848C20.3047 32.8771 19.6126 33.2138 19.0359 34.0984C18.3085 35.2143 18.5404 36.3968 19.6362 37.111C20.7119 37.8122 21.9271 37.53 22.6348 36.4443C23.2115 35.5597 23.2402 34.7905 22.9122 33.9751L24.1108 33.367C24.7124 34.5756 24.6091 35.8548 23.7638 37.1516C22.604 38.9309 20.6231 39.5306 18.8237 38.3576C17.0242 37.1846 16.793 35.1001 17.9331 33.3509C18.7785 32.0541 19.9071 31.4433 21.2558 31.506Z" fill="white"/>
<path d="M20.2931 29.9413L24.9363 24.8373L25.9305 25.7417L24.1136 27.7389L28.0281 31.3L27.0187 32.4096L23.1042 28.8485L21.2873 30.8457L20.2931 29.9413Z" fill="white"/>
<path d="M26.1165 23.6323L30.8145 19.8618L31.6633 20.9193L28.1351 23.7509L28.9012 24.7055L32.0738 22.1593L32.9225 23.2168L29.7499 25.763L30.5761 26.7925L34.2354 23.8557L35.0992 24.9319L30.2701 28.8076L26.1165 23.6323Z" fill="white"/>
<path d="M31.7401 18.9978L33.4948 18.0298L37.8575 21.1188L37.91 21.0898L37.7082 15.7056L39.3894 14.7782L42.5947 20.5887L41.3023 21.3017L39.0592 17.2353L38.9961 17.2701L39.2744 22.4203L38.1711 23.0289L34.0367 20.0059L33.9736 20.0407L36.2168 24.107L34.9454 24.8084L31.7401 18.9978Z" fill="white"/>
<path d="M40.1749 14.4532L45.8612 12.4646L46.3088 13.7446L42.0384 15.238L42.4425 16.3934L46.2825 15.0505L46.7301 16.3305L42.8901 17.6734L43.3259 18.9194L47.7549 17.3705L48.2104 18.6731L42.3655 20.7172L40.1749 14.4532Z" fill="white"/>
<path d="M61.7748 10.3404L68.6257 11.1629L68.4655 12.4973L65.7847 12.1755L65.154 17.4297L63.6646 17.251L64.2954 11.9967L61.6146 11.6749L61.7748 10.3404Z" fill="white"/>
<path d="M69.9584 11.4634L71.4187 11.806L69.903 18.2666L68.4427 17.924L69.9584 11.4634Z" fill="white"/>
<path d="M73.6167 12.1234L75.4822 12.8555L75.8915 18.1853L75.9473 18.2073L79.9617 14.6133L81.749 15.3147L79.3248 21.4921L77.9508 20.9529L79.6473 16.6299L79.5803 16.6036L75.7949 20.1068L74.6219 19.6466L74.3077 14.5344L74.2407 14.5081L72.5442 18.8312L71.1926 18.3008L73.6167 12.1234Z" fill="white"/>
<path d="M82.4813 15.6944L87.6452 18.7964L86.9469 19.9588L83.0688 17.6292L82.4386 18.6784L85.9257 20.7732L85.2275 21.9356L81.7403 19.8408L81.0606 20.9724L85.0827 23.3885L84.372 24.5714L79.0641 21.3829L82.4813 15.6944Z" fill="white"/>
<path d="M88.9047 19.539L92.1771 22.2851C93.0964 23.0564 93.3016 24.1373 92.6074 24.9646C92.2989 25.3323 91.9079 25.5368 91.4871 25.497C91.7553 26.1294 91.684 26.7744 91.1594 27.3995C90.4266 28.2728 89.1249 28.3867 88.1597 27.5767L84.639 24.6224L88.9047 19.539ZM89.1898 21.5328L88.4107 22.4612L90.5709 24.2739C90.8191 24.4822 91.1774 24.3912 91.3702 24.1614C91.5554 23.9408 91.6441 23.5923 91.2581 23.2683L89.1898 21.5328ZM87.5699 23.4632L86.6597 24.5479L88.9946 26.5071C89.3623 26.8157 89.7757 26.771 90.038 26.4585C90.3157 26.1275 90.2633 25.7233 89.9323 25.4456L87.5699 23.4632Z" fill="white"/>
<path d="M93.6117 28.1011C92.5734 28.9918 92.5779 30.2686 93.3905 31.2158C94.2031 32.163 95.4644 32.3616 96.5027 31.4709C97.541 30.5801 97.5365 29.3033 96.7239 28.3561C95.9113 27.4089 94.65 27.2103 93.6117 28.1011ZM97.4794 32.6093C95.8947 33.9689 93.7286 33.582 92.416 32.0519C91.1033 30.5218 91.0503 28.3222 92.635 26.9626C94.2197 25.603 96.3857 25.99 97.6984 27.52C99.0111 29.0501 99.0641 31.2498 97.4794 32.6093Z" fill="white"/>
<path d="M98.3269 33.8827C97.1594 34.5958 96.9595 35.8569 97.61 36.9219C98.2605 37.987 99.4737 38.3849 100.641 37.6719C101.809 36.9588 102.009 35.6977 101.358 34.6327C100.708 33.5676 99.4944 33.1697 98.3269 33.8827ZM101.423 38.952C99.6411 40.0403 97.565 39.3117 96.5142 37.5912C95.4634 35.8707 95.7631 33.6909 97.5451 32.6026C99.327 31.5143 101.403 32.2429 102.454 33.9634C103.505 35.6839 103.205 37.8637 101.423 38.952Z" fill="white"/>
<path d="M104.655 37.8874L105.214 39.2664L102.945 40.1862L103.671 41.9766L106.567 42.6026L107.216 44.204L103.571 43.3899L101.125 46.8419L100.457 45.1961L102.417 42.524L101.678 40.7002L99.0642 41.7598L98.5051 40.3808L104.655 37.8874Z" fill="white"/>
<path d="M70.9277 56.9848C72.9277 58.1395 72.9277 61.0262 70.9277 62.1809L56.7849 70.3463C54.7849 71.501 52.2849 70.0576 52.2849 67.7482L52.2849 51.4175C52.2849 49.1081 54.7849 47.6647 56.7849 48.8194L70.9277 56.9848Z" fill="white"/>
</svg>
