<svg id="svg-whatsapp" viewBox="0 0 48 48" fill="none" xmlns="http://www.w3.org/2000/svg">
<g clip-path="url(#clip0_83_1034)">
<path d="M24 48C37.2548 48 48 37.2548 48 24C48 10.7452 37.2548 0 24 0C10.7452 0 0 10.7452 0 24C0 37.2548 10.7452 48 24 48Z" fill="#85BB15"/>
<path fill-rule="evenodd" clip-rule="evenodd" d="M23.9938 33.8282H23.9897C22.3311 33.8276 20.7013 33.4115 19.2537 32.6219L14 34L15.406 28.8645C14.5387 27.3615 14.0824 25.6566 14.0831 23.9099C14.0853 18.4456 18.5311 14 23.9937 14C26.6449 14.0011 29.1332 15.0332 31.0043 16.9066C32.8755 18.7798 33.9053 21.2697 33.9043 23.9178C33.9021 29.3808 29.458 33.826 23.9938 33.8282ZM19.4972 30.8277L19.7979 31.0062C21.0627 31.7567 22.5124 32.1539 23.9905 32.1544H23.9938C28.5339 32.1544 32.2291 28.4592 32.2309 23.9171C32.2318 21.7162 31.3759 19.6466 29.8207 18.0896C28.2654 16.5325 26.1972 15.6747 23.997 15.6739C19.4534 15.6739 15.7582 19.3689 15.7564 23.9105C15.7558 25.4669 16.1913 26.9828 17.0158 28.2942L17.2117 28.6059L16.3795 31.6456L19.4972 30.8277ZM28.6475 26.0514C28.8202 26.1349 28.9369 26.1913 28.9867 26.2744C29.0486 26.3777 29.0486 26.8735 28.8423 27.452C28.6359 28.0304 27.6466 28.5583 27.1708 28.6294C26.7442 28.6932 26.2043 28.7198 25.6111 28.5313C25.2514 28.4172 24.7902 28.2649 24.1994 28.0096C21.8779 27.0073 20.309 24.7572 20.0125 24.332C19.9917 24.3022 19.9772 24.2814 19.9691 24.2705L19.9672 24.2679C19.8361 24.093 18.958 22.9214 18.958 21.7089C18.958 20.5682 19.5183 19.9704 19.7762 19.6952C19.7939 19.6763 19.8101 19.6589 19.8247 19.6431C20.0517 19.3952 20.3199 19.3332 20.485 19.3332C20.6501 19.3332 20.8154 19.3347 20.9597 19.3419C20.9774 19.3428 20.996 19.3428 21.0151 19.3426C21.1594 19.3418 21.3393 19.3407 21.5168 19.7671C21.5851 19.9311 21.685 20.1744 21.7904 20.4309C22.0034 20.9496 22.2389 21.5228 22.2803 21.6057C22.3422 21.7297 22.3835 21.8742 22.3009 22.0396C22.2886 22.0644 22.2771 22.0878 22.2661 22.1101C22.2041 22.2366 22.1586 22.3298 22.0533 22.4526C22.012 22.501 21.9692 22.553 21.9264 22.6051C21.8412 22.7089 21.7561 22.8126 21.6819 22.8865C21.5579 23.01 21.4288 23.1439 21.5733 23.3919C21.7177 23.6398 22.2147 24.4507 22.9508 25.1073C23.7422 25.8131 24.43 26.1114 24.7786 26.2627C24.8467 26.2922 24.9018 26.3162 24.9423 26.3364C25.1898 26.4604 25.3343 26.4396 25.4788 26.2744C25.6232 26.1092 26.0978 25.5513 26.2628 25.3035C26.4279 25.0556 26.593 25.0969 26.82 25.1795C27.047 25.2622 28.2645 25.8612 28.5121 25.9851C28.5604 26.0094 28.6057 26.0312 28.6475 26.0514Z" fill="#FDFDFD"/>
</g>
<defs>
<clipPath id="clip0_83_1034">
<rect width="48" height="48" fill="white"/>
</clipPath>
</defs>
</svg>
