<svg id="svg-whatsapp" viewBox="0 0 48 48" fill="none" xmlns="http://www.w3.org/2000/svg">
<g clip-path="url(#clip0_83_1034)">
<path d="M24.0001 48.0001C50.5002 48.0001 48.0001 51.0003 48.0001 24.0001C48.0001 -3.00013 50 6.88583e-05 24.0001 6.88583e-05C-1.99975 6.88583e-05 0.000124961 -2.49973 0.000124961 24.0001C0.000124961 50.4999 -2.49992 48.0001 24.0001 48.0001Z" fill="#85BB15"/>
<path fill-rule="evenodd" clip-rule="evenodd" d="M24.0629 38.7423H24.0567C21.5567 38.7414 19.1002 38.1172 16.9184 36.9328L9 39L11.1191 31.2968C9.81191 29.0423 9.12414 26.4849 9.12518 23.8649C9.12853 15.6684 15.8294 9 24.0626 9C28.0585 9.00172 31.809 10.5498 34.6292 13.3599C37.4493 16.1696 39.0016 19.9046 39 23.8766C38.9968 32.0711 32.2985 38.739 24.0629 38.7423ZM17.2854 34.2416L17.7387 34.5094C19.6449 35.6351 21.83 36.2308 24.0578 36.2317H24.0629C30.9057 36.2317 36.4752 30.6887 36.4779 23.8757C36.4793 20.5742 35.1891 17.4699 32.8451 15.1343C30.5011 12.7988 27.3839 11.512 24.0677 11.5109C17.2195 11.5109 11.65 17.0533 11.6473 23.8657C11.6463 26.2004 12.3027 28.4741 13.5454 30.4413L13.8407 30.9088L12.5864 35.4683L17.2854 34.2416ZM31.077 27.0772C31.3373 27.2024 31.5131 27.287 31.5882 27.4116C31.6814 27.5665 31.6814 28.3102 31.3705 29.178C31.0594 30.0456 29.5683 30.8375 28.8512 30.9442C28.2082 31.0398 27.3944 31.0797 26.5004 30.797C25.9583 30.6258 25.2632 30.3973 24.3727 30.0145C20.8737 28.5109 18.5091 25.1358 18.0621 24.498C18.0308 24.4533 18.009 24.4221 17.9967 24.4058L17.9938 24.4019C17.7963 24.1396 16.4728 22.3822 16.4728 20.5633C16.4728 18.8524 17.3172 17.9556 17.706 17.5428C17.7326 17.5144 17.7571 17.4884 17.779 17.4647C18.1212 17.0928 18.5255 16.9998 18.7743 16.9998C19.0231 16.9998 19.2722 17.002 19.4897 17.0129C19.5165 17.0142 19.5444 17.0141 19.5732 17.0139C19.7907 17.0127 20.0619 17.0111 20.3295 17.6506C20.4323 17.8966 20.583 18.2615 20.7417 18.6463C21.0629 19.4244 21.4178 20.2841 21.4802 20.4086C21.5735 20.5946 21.6357 20.8113 21.5113 21.0593C21.4926 21.0965 21.4754 21.1316 21.4588 21.1652C21.3654 21.355 21.2967 21.4947 21.138 21.6789C21.0757 21.7514 21.0113 21.8296 20.9468 21.9077C20.8184 22.0633 20.69 22.2189 20.5783 22.3298C20.3913 22.515 20.1968 22.7159 20.4146 23.0878C20.6323 23.4597 21.3814 24.676 22.4908 25.6609C23.6836 26.7197 24.7203 27.1672 25.2457 27.394C25.3483 27.4383 25.4314 27.4743 25.4924 27.5046C25.8654 27.6906 26.0832 27.6595 26.301 27.4116C26.5187 27.1637 27.234 26.327 27.4827 25.9552C27.7315 25.5834 27.9804 25.6454 28.3224 25.7692C28.6647 25.8933 30.4996 26.7919 30.8729 26.9777C30.9457 27.014 31.0138 27.0469 31.077 27.0772Z" fill="#FDFDFD"/>
</g>
<defs>
<clipPath id="clip0_83_1034">
<rect width="48" height="48" fill="white"/>
</clipPath>
</defs>
</svg>
