<svg width="1800" height="844" viewBox="0 0 1800 844" fill="none" xmlns="http://www.w3.org/2000/svg">
<path d="M0 50C0 22.3858 22.3858 0 50 0H1750C1777.61 0 1800 22.3858 1800 50V794C1800 821.614 1777.61 844 1750 844H50C22.3858 844 0 821.614 0 794L0 50Z" fill="#85BB15"/>
<path d="M0 50C0 22.3858 22.3858 0 50 0H1750C1777.61 0 1800 22.3858 1800 50V794C1800 821.614 1777.61 844 1750 844H50C22.3858 844 0 821.614 0 794L0 50Z" fill="url(#paint0_radial_83_366)"/>
<path d="M0 50C0 22.3858 22.3858 0 50 0H1750C1777.61 0 1800 22.3858 1800 50V794C1800 821.614 1777.61 844 1750 844H50C22.3858 844 0 821.614 0 794L0 50Z" fill="url(#paint1_radial_83_366)"/>
<path d="M0 50C0 22.3858 22.3858 0 50 0H1750C1777.61 0 1800 22.3858 1800 50V794C1800 821.614 1777.61 844 1750 844H50C22.3858 844 0 821.614 0 794L0 50Z" fill="url(#paint2_radial_83_366)"/>
<defs>
<radialGradient id="paint0_radial_83_366" cx="0" cy="0" r="1" gradientUnits="userSpaceOnUse" gradientTransform="translate(1666.5 61.2314) rotate(114.792) scale(538.971 467.056)">
<stop stop-color="white" stop-opacity="0.5"/>
<stop offset="1" stop-color="white" stop-opacity="0"/>
</radialGradient>
<radialGradient id="paint1_radial_83_366" cx="0" cy="0" r="1" gradientUnits="userSpaceOnUse" gradientTransform="translate(105 33.6497) rotate(43.4907) scale(398.354 402.344)">
<stop stop-color="white" stop-opacity="0.5"/>
<stop offset="1" stop-color="white" stop-opacity="0"/>
</radialGradient>
<radialGradient id="paint2_radial_83_366" cx="0" cy="0" r="1" gradientUnits="userSpaceOnUse" gradientTransform="translate(890 814.756) rotate(89.767) scale(245.857 524.335)">
<stop stop-color="white" stop-opacity="0.2"/>
<stop offset="1" stop-color="white" stop-opacity="0"/>
</radialGradient>
</defs>
</svg>
